<?xml version="1.0" standalone="no"?>
<!DOCTYPE svg PUBLIC "-//W3C//DTD SVG 20010904//EN"
 "http://www.w3.org/TR/2001/REC-SVG-20010904/DTD/svg10.dtd">
<svg version="1.0" xmlns="http://www.w3.org/2000/svg"
 width="200.000000pt" height="200.000000pt" viewBox="0 0 200.000000 200.000000"
 preserveAspectRatio="xMidYMid meet">
<metadata>
Created by potrace 1.16, written by Peter Selinger 2001-2019
</metadata>
<g transform="translate(0.000000,200.000000) scale(0.100000,-0.100000)"
fill="#ff0000" stroke="none">
<path d="M95 1986 c-41 -18 -83 -69 -90 -109 -3 -18 -4 -424 -3 -904 l3 -872
21 -27 c11 -15 33 -37 48 -48 l27 -21 899 0 899 0 27 21 c15 11 37 33 48 48
l21 27 0 899 0 899 -21 27 c-11 15 -33 37 -48 48 l-27 21 -887 2 -887 2 -30
-13z m1780 -111 l25 -24 0 -851 0 -851 -25 -24 -24 -25 -851 0 -851 0 -24 25
-25 24 0 851 0 851 25 24 24 25 851 0 851 0 24 -25z"/>
<path d="M184 1827 c-3 -9 -4 -24 -2 -34 l3 -18 121 -5 c140 -6 156 -13 209
-95 19 -31 35 -58 35 -60 0 -3 -72 -5 -160 -5 l-160 0 0 40 0 40 -30 0 -30 0
2 -307 3 -308 25 0 25 0 3 148 3 147 64 0 64 0 3 -147 3 -148 28 -3 27 -3 0
150 0 150 53 3 52 3 3 28 3 27 -150 0 -151 0 0 60 0 60 179 0 178 0 37 -55
c42 -63 42 -65 18 -65 -10 0 -29 -12 -43 -26 l-24 -26 0 -151 0 -152 25 0 25
0 5 138 c4 108 8 140 20 147 36 23 50 9 141 -131 l92 -140 21 3 c37 5 28 35
-44 143 -39 58 -73 112 -76 119 -4 10 10 15 55 18 78 5 101 25 101 85 0 30 -5
45 -15 49 -21 8 -45 -14 -45 -41 0 -25 -30 -35 -101 -35 l-38 0 -36 52 c-19
29 -35 56 -35 60 0 4 57 9 128 10 l127 3 0 25 0 25 -145 3 -145 2 -17 21 c-10
12 -18 25 -18 29 0 4 63 10 140 13 133 6 175 15 192 41 14 20 9 103 -6 109
-20 8 -44 -14 -48 -43 l-3 -25 -169 -3 -169 -2 -14 20 c-8 11 -33 30 -56 42
l-42 22 -117 4 -118 4 -6 -15z"/>
<path d="M1160 1743 c0 -136 -10 -164 -70 -207 -53 -38 -58 -51 -37 -80 l14
-19 54 37 c29 20 60 36 68 36 8 0 38 -13 67 -30 l53 -30 15 16 c26 26 18 42
-39 78 -32 21 -57 45 -60 58 -3 13 -6 70 -8 128 l-2 105 -27 3 -28 3 0 -98z"/>
<path d="M1450 1834 c-77 -26 -90 -58 -90 -211 0 -74 5 -127 13 -142 21 -42
62 -64 127 -69 l60 -4 0 -170 0 -169 28 3 27 3 3 168 2 167 48 0 c27 0 57 -6
68 -14 l19 -14 5 -154 5 -153 28 -3 27 -3 0 156 c0 173 -8 203 -60 230 -16 8
-54 15 -85 15 l-55 0 0 30 0 30 101 0 100 0 -3 28 -3 27 -97 3 -98 3 0 29 0
30 100 0 100 0 0 30 0 30 -100 0 -100 0 0 30 0 29 98 3 97 3 0 30 0 30 -175 2
c-96 1 -182 -1 -190 -3z m108 -91 l-3 -28 -67 -3 -68 -3 0 20 c0 28 26 40 88
41 l53 0 -3 -27z m0 -125 l3 -28 -70 0 -71 0 0 30 0 31 68 -3 67 -3 3 -27z m0
-115 l-3 -28 -41 -3 c-54 -4 -94 12 -94 38 l0 20 71 0 70 0 -3 -27z"/>
<path d="M1166 1468 c-3 -7 -7 -67 -9 -133 -2 -66 -7 -128 -11 -137 -5 -9 -30
-31 -57 -49 -54 -34 -53 -33 -39 -60 14 -25 22 -24 87 8 l54 26 61 -29 60 -29
14 20 c8 10 14 22 14 27 0 4 -25 23 -55 42 -32 21 -57 45 -60 58 -3 13 -6 77
-8 143 l-2 120 -23 3 c-12 2 -24 -3 -26 -10z"/>
<path d="M1367 1384 c-4 -4 -7 -77 -7 -161 l0 -154 28 3 27 3 0 155 0 155 -20
3 c-12 2 -24 0 -28 -4z"/>
<path d="M1455 1378 c-3 -8 -4 -79 -3 -158 l3 -145 28 -3 28 -3 -3 158 -3 158
-23 3 c-12 2 -24 -3 -27 -10z"/>
<path d="M1664 1367 c-2 -7 -3 -76 -2 -152 l3 -140 28 -3 27 -3 0 155 0 156
-25 0 c-14 0 -28 -6 -31 -13z"/>
<path d="M1237 963 c-4 -3 -7 -19 -7 -35 l0 -28 -37 0 c-54 0 -105 -29 -126
-70 l-17 -35 2 -315 3 -315 25 0 25 0 5 275 c3 151 9 269 13 263 5 -7 17 -13
27 -13 l20 0 2 -262 3 -263 25 0 25 0 3 263 2 262 30 0 30 0 2 -257 3 -258 25
0 25 0 3 256 2 257 20 5 c15 4 20 14 20 36 l0 31 -50 0 -50 0 0 36 0 37 41 -6
c23 -3 47 -10 53 -17 7 -7 13 -112 16 -328 l5 -317 25 0 25 0 3 317 c3 357 0
372 -61 401 -19 9 -51 17 -71 17 l-36 0 0 29 c0 33 -33 54 -53 34z m-7 -168
l0 -35 -48 0 c-26 0 -54 -6 -61 -12 l-14 -13 7 30 c9 40 41 65 82 65 l34 0 0
-35z"/>
<path d="M177 944 c-4 -4 -7 -156 -7 -338 l0 -331 18 -35 c9 -20 32 -43 52
-53 l35 -17 270 2 270 3 0 30 0 30 -280 5 c-154 3 -286 9 -292 13 -7 5 -13 15
-13 22 l0 15 293 2 292 3 0 25 0 25 -292 3 -293 2 0 30 0 30 293 2 292 3 3 24
c2 13 -2 28 -10 32 -7 5 -140 9 -295 9 l-283 0 -2 233 -3 232 -20 3 c-12 2
-24 0 -28 -4z"/>
<path d="M284 936 c-3 -8 -4 -23 -2 -33 l3 -18 142 -3 142 -3 3 -62 3 -62 28
-3 27 -3 0 65 0 66 106 0 c58 0 114 -5 125 -10 25 -14 27 -101 2 -121 -12 -11
-75 -15 -269 -19 l-252 -5 -26 -24 c-20 -19 -26 -34 -26 -66 0 -92 41 -105
340 -105 l209 0 21 -22 20 -22 0 -157 0 -157 15 -6 c8 -3 22 -3 30 0 l15 6 0
170 c0 264 7 258 -330 258 -140 0 -239 4 -251 10 -23 13 -25 46 -3 54 9 3 118
6 242 6 257 0 294 6 322 53 25 40 27 125 4 168 -28 55 -54 59 -359 59 l-276 0
-5 -14z"/>
<path d="M1560 932 c-40 -20 -60 -53 -60 -102 0 -88 54 -123 179 -117 l84 4
29 31 c51 58 34 151 -32 184 -47 24 -153 24 -200 0z m188 -64 c7 -7 12 -27 12
-45 0 -42 -21 -53 -100 -53 -79 0 -100 11 -100 53 0 49 15 57 100 57 46 0 81
-5 88 -12z"/>
<path d="M1581 667 c-19 -7 -44 -25 -55 -40 l-21 -28 -3 -157 c-4 -176 5 -222
51 -256 l28 -21 79 0 79 0 28 21 c48 36 53 56 53 235 l0 166 -23 34 c-26 39
-71 58 -137 58 -25 0 -60 -5 -79 -12z m154 -61 c14 -10 20 -30 23 -80 l4 -66
-96 0 -96 0 0 60 c0 80 19 100 93 100 29 0 62 -6 72 -14z m25 -274 c0 -36 -6
-66 -16 -80 l-15 -22 -64 0 -64 0 -15 22 c-10 14 -16 44 -16 80 l0 58 95 0 95
0 0 -58z"/>
</g>
</svg>
